<svg width="457" height="110" viewBox="0 0 457 110" fill="none" xmlns="http://www.w3.org/2000/svg">
<path d="M318.156 79V32.28H327.756V70.04H346.636V79H318.156ZM352.051 79L363.507 32.28H375.667L387.251 79H377.459L375.219 68.44H364.083L361.843 79H352.051ZM365.683 60.76H373.555L371.315 49.496C371.017 47.8747 370.697 46.2747 370.355 44.696C370.057 43.0747 369.822 41.816 369.651 40.92C369.481 41.816 369.246 43.0533 368.947 44.632C368.691 46.2107 368.393 47.8107 368.051 49.432L365.683 60.76ZM393.05 79V32.28H408.09C412.826 32.28 416.602 33.368 419.418 35.544C422.234 37.6773 423.642 40.5787 423.642 44.248C423.642 46.296 423.152 48.088 422.17 49.624C421.232 51.16 419.952 52.3547 418.33 53.208C416.752 54.0613 415.024 54.488 413.146 54.488V54.68C415.237 54.6373 417.136 55.0213 418.842 55.832C420.592 56.6427 422 57.8587 423.066 59.48C424.133 61.1013 424.666 63.1067 424.666 65.496C424.666 68.2267 424.005 70.616 422.682 72.664C421.402 74.6693 419.568 76.2267 417.178 77.336C414.789 78.4453 411.952 79 408.666 79H393.05ZM402.33 71.256H408.282C410.373 71.256 412.016 70.7013 413.21 69.592C414.405 68.4827 415.002 66.9467 415.002 64.984C415.002 63.0213 414.405 61.4853 413.21 60.376C412.016 59.224 410.373 58.648 408.282 58.648H402.33V71.256ZM402.33 51.096H407.962C409.84 51.096 411.312 50.6053 412.378 49.624C413.445 48.6 413.978 47.2347 413.978 45.528C413.978 43.7787 413.445 42.4347 412.378 41.496C411.312 40.5147 409.84 40.024 407.962 40.024H402.33V51.096Z" fill="black"/>
<path d="M129.456 79.64C126.384 79.64 123.739 79.128 121.52 78.104C119.344 77.08 117.659 75.608 116.464 73.688C115.269 71.768 114.651 69.4853 114.608 66.84H120.368C120.368 69.1867 121.157 71.0427 122.736 72.408C124.357 73.7733 126.597 74.456 129.456 74.456C132.144 74.456 134.235 73.7947 135.728 72.472C137.264 71.1493 138.032 69.3147 138.032 66.968C138.032 65.0907 137.52 63.448 136.496 62.04C135.515 60.632 134.085 59.6507 132.208 59.096L125.872 57.112C122.672 56.1307 120.197 54.488 118.448 52.184C116.741 49.88 115.888 47.1707 115.888 44.056C115.888 41.5387 116.443 39.3627 117.552 37.528C118.704 35.6507 120.304 34.2 122.352 33.176C124.4 32.1093 126.811 31.576 129.584 31.576C133.68 31.576 136.965 32.728 139.44 35.032C141.915 37.2933 143.173 40.3227 143.216 44.12H137.456C137.456 41.816 136.752 40.024 135.344 38.744C133.979 37.4213 132.037 36.76 129.52 36.76C127.045 36.76 125.104 37.3573 123.696 38.552C122.331 39.7467 121.648 41.4107 121.648 43.544C121.648 45.464 122.16 47.128 123.184 48.536C124.208 49.944 125.68 50.9467 127.6 51.544L134 53.592C137.115 54.5733 139.525 56.2373 141.232 58.584C142.939 60.9307 143.792 63.6827 143.792 66.84C143.792 69.4 143.195 71.64 142 73.56C140.805 75.48 139.12 76.9733 136.944 78.04C134.811 79.1067 132.315 79.64 129.456 79.64ZM167.575 79.64C164.759 79.64 162.327 79.1067 160.279 78.04C158.274 76.9733 156.716 75.4373 155.607 73.432C154.54 71.384 154.007 68.9733 154.007 66.2V45.08C154.007 42.264 154.54 39.8533 155.607 37.848C156.716 35.8427 158.274 34.3067 160.279 33.24C162.327 32.1733 164.759 31.64 167.575 31.64C170.391 31.64 172.802 32.1733 174.807 33.24C176.855 34.3067 178.412 35.8427 179.479 37.848C180.588 39.8533 181.143 42.2427 181.143 45.016V66.2C181.143 68.9733 180.588 71.384 179.479 73.432C178.412 75.4373 176.855 76.9733 174.807 78.04C172.802 79.1067 170.391 79.64 167.575 79.64ZM167.575 74.456C170.092 74.456 172.012 73.752 173.335 72.344C174.7 70.8933 175.383 68.8453 175.383 66.2V45.08C175.383 42.4347 174.7 40.408 173.335 39C172.012 37.5493 170.092 36.824 167.575 36.824C165.1 36.824 163.18 37.5493 161.815 39C160.45 40.408 159.767 42.4347 159.767 45.08V66.2C159.767 68.8453 160.45 70.8933 161.815 72.344C163.18 73.752 165.1 74.456 167.575 74.456ZM205.95 79.64C201.598 79.64 198.27 78.4453 195.966 76.056C193.662 73.624 192.51 70.3387 192.51 66.2V32.28H198.27V66.2C198.27 68.76 198.889 70.7867 200.126 72.28C201.406 73.7733 203.347 74.52 205.95 74.52C208.51 74.52 210.43 73.7733 211.71 72.28C212.99 70.7867 213.63 68.76 213.63 66.2V32.28H219.39V66.2C219.39 70.3813 218.238 73.6667 215.934 76.056C213.673 78.4453 210.345 79.64 205.95 79.64ZM230.885 79V32.28H238.565L252.837 72.28C252.752 71.2133 252.645 69.912 252.517 68.376C252.432 66.7973 252.346 65.1547 252.261 63.448C252.218 61.6987 252.197 60.056 252.197 58.52V32.28H257.765V79H250.085L235.877 39C235.962 40.024 236.048 41.3253 236.133 42.904C236.218 44.44 236.282 46.0827 236.325 47.832C236.41 49.5387 236.453 51.1813 236.453 52.76V79H230.885ZM269.388 79V32.28H281.484C284.513 32.28 287.116 32.856 289.292 34.008C291.511 35.16 293.217 36.7813 294.412 38.872C295.649 40.9627 296.268 43.4373 296.268 46.296V64.92C296.268 67.7787 295.649 70.2747 294.412 72.408C293.217 74.4987 291.511 76.12 289.292 77.272C287.116 78.424 284.513 79 281.484 79H269.388ZM275.148 73.88H281.484C284.3 73.88 286.497 73.0907 288.076 71.512C289.697 69.9333 290.508 67.736 290.508 64.92V46.296C290.508 43.5227 289.697 41.3467 288.076 39.768C286.497 38.1893 284.3 37.4 281.484 37.4H275.148V73.88Z" fill="black"/>
<circle cx="55" cy="55" r="48.125" fill="#FF5502"/>
<path d="M82.2601 72.1875H54.1206V38.1922C56.7278 35.8114 60.1046 34.375 63.7936 34.375C71.9569 34.375 78.5919 41.409 78.7402 50.1464C79.8411 49.7278 81.0259 49.5 82.2601 49.5C88.088 49.5 92.8125 54.5787 92.8125 60.8437C92.8125 67.1087 88.088 72.1875 82.2601 72.1875Z" fill="white"/>
<path d="M51.5625 41.25H48.125V72.1875H51.5625V41.25Z" fill="white"/>
<path d="M41.25 44.6875H44.6875V72.1875H41.25V44.6875Z" fill="white"/>
<path d="M37.8125 51.5625H34.375V72.1875H37.8125V51.5625Z" fill="white"/>
<path d="M27.5 48.125H30.9375V72.1875H27.5V48.125Z" fill="white"/>
<path d="M24.0625 55H20.625V72.1875H24.0625V55Z" fill="white"/>
</svg>
