<svg width="110" height="110" viewBox="0 0 110 110" fill="none" xmlns="http://www.w3.org/2000/svg">
<circle cx="55" cy="55" r="48.125" fill="#FF5502"/>
<path d="M82.2601 72.1875H54.1206V38.1922C56.7278 35.8114 60.1046 34.375 63.7936 34.375C71.9569 34.375 78.5919 41.409 78.7402 50.1464C79.8411 49.7278 81.0259 49.5 82.2601 49.5C88.088 49.5 92.8125 54.5787 92.8125 60.8437C92.8125 67.1087 88.088 72.1875 82.2601 72.1875Z" fill="white"/>
<path d="M51.5625 41.25H48.125V72.1875H51.5625V41.25Z" fill="white"/>
<path d="M41.25 44.6875H44.6875V72.1875H41.25V44.6875Z" fill="white"/>
<path d="M37.8125 51.5625H34.375V72.1875H37.8125V51.5625Z" fill="white"/>
<path d="M27.5 48.125H30.9375V72.1875H27.5V48.125Z" fill="white"/>
<path d="M24.0625 55H20.625V72.1875H24.0625V55Z" fill="white"/>
</svg>
